<svg width="12" height="12" viewBox="0 0 1536 1536" fill="none" xmlns="http://www.w3.org/2000/svg">
<g clip-path="url(#clip0_5_4)">
<path d="M755 928C755 936.667 751.667 944.333 745 951L413 1283L557 1427C569.667 1439.67 576 1454.67 576 1472C576 1489.33 569.667 1504.33 557 1517C544.333 1529.67 529.333 1536 512 1536H64C46.6667 1536 31.6667 1529.67 19 1517C6.33333 1504.33 0 1489.33 0 1472V1024C0 1006.67 6.33333 991.667 19 979C31.6667 966.333 46.6667 960 64 960C81.3333 960 96.3333 966.333 109 979L253 1123L585 791C591.667 784.333 599.333 781 608 781C616.667 781 624.333 784.333 631 791L745 905C751.667 911.667 755 919.333 755 928ZM1536 64V512C1536 529.333 1529.67 544.333 1517 557C1504.33 569.667 1489.33 576 1472 576C1454.67 576 1439.67 569.667 1427 557L1283 413L951 745C944.333 751.667 936.667 755 928 755C919.333 755 911.667 751.667 905 745L791 631C784.333 624.333 781 616.667 781 608C781 599.333 784.333 591.667 791 585L1123 253L979 109C966.333 96.3333 960 81.3333 960 64C960 46.6667 966.333 31.6667 979 19C991.667 6.33333 1006.67 0 1024 0H1472C1489.33 0 1504.33 6.33333 1517 19C1529.67 31.6667 1536 46.6667 1536 64Z" fill="black"/>
</g>
<defs>
<clipPath id="clip0_5_4">
<rect width="1536" height="1536" fill="white"/>
</clipPath>
</defs>
</svg>
