<svg width="256" height="256" viewBox="0 0 256 256" fill="none" xmlns="http://www.w3.org/2000/svg">
<path d="M216 72H131.31L104 44.69C102.519 43.1987 100.757 42.0162 98.8152 41.2111C96.8737 40.4061 94.7918 39.9944 92.69 40H40C35.7565 40 31.6869 41.6857 28.6863 44.6863C25.6857 47.6869 24 51.7565 24 56V200.62C24.0079 204.698 25.6322 208.607 28.517 211.49C31.4017 214.373 35.3117 215.995 39.39 216H216.89C220.896 215.995 224.736 214.401 227.569 211.569C230.401 208.736 231.995 204.896 232 200.89V88C232 83.7565 230.314 79.6869 227.314 76.6863C224.313 73.6857 220.243 72 216 72ZM40 56H92.69L108.69 72H40V56Z" fill="#fff"/>
</svg>
