<svg width="12" height="12" viewBox="0 0 12 12" fill="none" xmlns="http://www.w3.org/2000/svg">
<path d="M11.78 1.28C11.9125 1.13782 11.9846 0.949778 11.9812 0.755476C11.9777 0.561175 11.899 0.37579 11.7616 0.238377C11.6242 0.100964 11.4388 0.0222523 11.2445 0.0188241C11.0502 0.0153959 10.8622 0.0875191 10.72 0.219999L8.5 2.44V1.25C8.5 1.05109 8.42098 0.860321 8.28033 0.719669C8.13968 0.579017 7.94891 0.499999 7.75 0.499999C7.55109 0.499999 7.36032 0.579017 7.21967 0.719669C7.07902 0.860321 7 1.05109 7 1.25V4.15C7 4.167 7 4.185 7.002 4.202C6.99492 4.30836 7.01066 4.41501 7.04816 4.51479C7.08566 4.61457 7.14406 4.70519 7.21943 4.78056C7.29481 4.85594 7.38542 4.91433 7.48521 4.95183C7.58499 4.98933 7.69164 5.00507 7.798 4.998C7.81531 4.99919 7.83265 4.99986 7.85 5H10.75C10.9489 5 11.1397 4.92098 11.2803 4.78033C11.421 4.63968 11.5 4.44891 11.5 4.25C11.5 4.05109 11.421 3.86032 11.2803 3.71967C11.1397 3.57902 10.9489 3.5 10.75 3.5H9.56L11.78 1.28ZM4.25 11.5C4.05109 11.5 3.86032 11.421 3.71967 11.2803C3.57902 11.1397 3.5 10.9489 3.5 10.75V9.56L1.28 11.78C1.13782 11.9125 0.949778 11.9846 0.755476 11.9812C0.561175 11.9777 0.37579 11.899 0.238377 11.7616C0.100964 11.6242 0.0222523 11.4388 0.0188241 11.2445C0.0153959 11.0502 0.0875191 10.8622 0.219999 10.72L2.44 8.5H1.25C1.05109 8.5 0.860321 8.42098 0.719669 8.28033C0.579017 8.13968 0.499999 7.94891 0.499999 7.75C0.499999 7.55109 0.579017 7.36032 0.719669 7.21967C0.860321 7.07902 1.05109 7 1.25 7H4.15C4.16735 7.00014 4.18469 7.00081 4.202 7.002C4.30836 6.99492 4.41501 7.01066 4.51479 7.04816C4.61457 7.08566 4.70519 7.14406 4.78056 7.21943C4.85594 7.29481 4.91433 7.38542 4.95183 7.48521C4.98933 7.58499 5.00507 7.69164 4.998 7.798C4.99919 7.81531 4.99986 7.83265 5 7.85V10.75C5 10.9489 4.92098 11.1397 4.78033 11.2803C4.63968 11.421 4.44891 11.5 4.25 11.5Z" fill="black"/>
</svg>
