<svg width="216" height="232" viewBox="0 0 216 232" fill="none" xmlns="http://www.w3.org/2000/svg">
<path d="M205.6 50.64L117.6 2.47001C114.659 0.851447 111.357 0.00271606 108 0.00271606C104.643 0.00271606 101.341 0.851447 98.4 2.47001L10.4 50.64C7.25117 52.3629 4.62403 54.9014 2.79417 57.9893C0.964308 61.0772 -0.00083039 64.6007 5.3608e-07 68.19V163.81C-0.00083039 167.399 0.964308 170.923 2.79417 174.011C4.62403 177.099 7.25117 179.637 10.4 181.36L98.4 229.53C101.34 231.15 104.643 232 108 232C111.357 232 114.66 231.15 117.6 229.53L205.6 181.36C208.749 179.637 211.376 177.099 213.206 174.011C215.036 170.923 216.001 167.399 216 163.81V68.19C216.001 64.6007 215.036 61.0772 213.206 57.9893C211.376 54.9014 208.749 52.3629 205.6 50.64ZM108 24.57L180 64L108 103.4L36 64L108 24.57ZM24 84.79L96 124.19V200.86L24 161.44V84.79ZM120 200.86V124.19L192 84.79V161.44L120 200.86Z" fill="#fff"/>
</svg>
